solid 3d krystof enderman1
facet normal 0.0 0.0 -1.0
  outer loop
    vertex 129.20189145544163 21.791211999999895 -30.466435
    vertex 103.41067945544164 -4.000000000000056 -30.466435
    vertex 103.41067945544164 21.791211999999895 -30.466435
  endloop
endfacet
facet normal 0.0 0.0 -1.0
  outer loop
    vertex 103.41067945544164 -4.000000000000056 -30.466435
    vertex 129.20189145544163 21.791211999999895 -30.466435
    vertex 129.20189145544163 -4.000000000000056 -30.466435
  endloop
endfacet
facet normal 0.0 0.0 1.0
  outer loop
    vertex 103.41067945544164 -4.000000000000056 -29.466435
    vertex 111.46424843052189 8.245605999999928 -29.466435
    vertex 103.41067945544164 21.791211999999895 -29.466435
  endloop
endfacet
facet normal 0.0 0.0 1.0
  outer loop
    vertex 111.46424843052189 8.245605999999928 -29.466435
    vertex 103.41067945544164 -4.000000000000056 -29.466435
    vertex 111.67084263989913 7.976367184457416 -29.466435
  endloop
endfacet
facet normal 0.0 0.0 1.0
  outer loop
    vertex 111.67084263989913 7.976367184457416 -29.466435
    vertex 103.41067945544164 -4.000000000000056 -29.466435
    vertex 111.94008145544166 7.7697729750801585 -29.466435
  endloop
endfacet
facet normal 0.0 0.0 1.0
  outer loop
    vertex 111.94008145544166 7.7697729750801585 -29.466435
    vertex 103.41067945544164 -4.000000000000056 -29.466435
    vertex 129.20189145544163 -4.000000000000056 -29.466435
  endloop
endfacet
facet normal 0.0 0.0 1.0
  outer loop
    vertex 103.41067945544164 21.791211999999895 -29.466435
    vertex 111.46424843052189 8.245605999999928 -29.466435
    vertex 111.33437788126587 8.559141241366648 -29.466435
  endloop
endfacet
facet normal 0.0 0.0 1.0
  outer loop
    vertex 103.41067945544164 21.791211999999895 -29.466435
    vertex 111.33437788126587 8.559141241366648 -29.466435
    vertex 111.29008145544165 8.895605999999926 -29.466435
  endloop
endfacet
facet normal 0.0 0.0 1.0
  outer loop
    vertex 111.94008145544166 7.7697729750801585 -29.466435
    vertex 129.20189145544163 -4.000000000000056 -29.466435
    vertex 112.25361669680838 7.639902425824139 -29.466435
  endloop
endfacet
facet normal 0.0 0.0 1.0
  outer loop
    vertex 112.25361669680838 7.639902425824139 -29.466435
    vertex 129.20189145544163 -4.000000000000056 -29.466435
    vertex 112.59008145544165 7.595605999999928 -29.466435
  endloop
endfacet
facet normal 0.0 0.0 1.0
  outer loop
    vertex 112.59008145544165 7.595605999999928 -29.466435
    vertex 129.20189145544163 -4.000000000000056 -29.466435
    vertex 112.92654621407492 7.639902425824139 -29.466435
  endloop
endfacet
facet normal 0.0 0.0 1.0
  outer loop
    vertex 112.92654621407492 7.639902425824139 -29.466435
    vertex 129.20189145544163 -4.000000000000056 -29.466435
    vertex 113.24008145544165 7.7697729750801585 -29.466435
  endloop
endfacet
facet normal 0.0 0.0 1.0
  outer loop
    vertex 113.24008145544165 7.7697729750801585 -29.466435
    vertex 129.20189145544163 -4.000000000000056 -29.466435
    vertex 113.50932027098416 7.976367184457416 -29.466435
  endloop
endfacet
facet normal 0.0 0.0 1.0
  outer loop
    vertex 113.50932027098416 7.976367184457416 -29.466435
    vertex 129.20189145544163 -4.000000000000056 -29.466435
    vertex 113.7159144803614 8.245605999999928 -29.466435
  endloop
endfacet
facet normal 0.0 0.0 1.0
  outer loop
    vertex 113.7159144803614 8.245605999999928 -29.466435
    vertex 129.20189145544163 -4.000000000000056 -29.466435
    vertex 113.84578502961743 8.55914124136665 -29.466435
  endloop
endfacet
facet normal 0.0 0.0 1.0
  outer loop
    vertex 113.84578502961743 8.55914124136665 -29.466435
    vertex 129.20189145544163 -4.000000000000056 -29.466435
    vertex 113.89008145544165 8.895605999999926 -29.466435
  endloop
endfacet
facet normal 0.0 0.0 1.0
  outer loop
    vertex 113.89008145544165 8.895605999999926 -29.466435
    vertex 129.20189145544163 -4.000000000000056 -29.466435
    vertex 119.10325063989914 7.976367184457416 -29.466435
  endloop
endfacet
facet normal 0.0 0.0 1.0
  outer loop
    vertex 113.89008145544165 8.895605999999926 -29.466435
    vertex 119.10325063989914 7.976367184457416 -29.466435
    vertex 118.8966564305219 8.245605999999928 -29.466435
  endloop
endfacet
facet normal 0.0 0.0 1.0
  outer loop
    vertex 113.89008145544165 8.895605999999926 -29.466435
    vertex 118.8966564305219 8.245605999999928 -29.466435
    vertex 118.76678588126587 8.559141241366648 -29.466435
  endloop
endfacet
facet normal 0.0 0.0 1.0
  outer loop
    vertex 113.89008145544165 8.895605999999926 -29.466435
    vertex 118.76678588126587 8.559141241366648 -29.466435
    vertex 118.72248945544166 8.895605999999926 -29.466435
  endloop
endfacet
facet normal 0.0 0.0 1.0
  outer loop
    vertex 119.10325063989914 7.976367184457416 -29.466435
    vertex 129.20189145544163 -4.000000000000056 -29.466435
    vertex 119.37248945544167 7.7697729750801585 -29.466435
  endloop
endfacet
facet normal 0.0 0.0 1.0
  outer loop
    vertex 119.37248945544167 7.7697729750801585 -29.466435
    vertex 129.20189145544163 -4.000000000000056 -29.466435
    vertex 119.68602469680839 7.639902425824139 -29.466435
  endloop
endfacet
facet normal 0.0 0.0 1.0
  outer loop
    vertex 119.68602469680839 7.639902425824139 -29.466435
    vertex 129.20189145544163 -4.000000000000056 -29.466435
    vertex 120.02248945544166 7.595605999999928 -29.466435
  endloop
endfacet
facet normal 0.0 0.0 1.0
  outer loop
    vertex 120.02248945544166 7.595605999999928 -29.466435
    vertex 129.20189145544163 -4.000000000000056 -29.466435
    vertex 120.35895421407493 7.639902425824139 -29.466435
  endloop
endfacet
facet normal 0.0 0.0 1.0
  outer loop
    vertex 120.35895421407493 7.639902425824139 -29.466435
    vertex 129.20189145544163 -4.000000000000056 -29.466435
    vertex 120.67248945544166 7.7697729750801585 -29.466435
  endloop
endfacet
facet normal 0.0 0.0 1.0
  outer loop
    vertex 120.67248945544166 7.7697729750801585 -29.466435
    vertex 129.20189145544163 -4.000000000000056 -29.466435
    vertex 120.94172827098417 7.976367184457416 -29.466435
  endloop
endfacet
facet normal 0.0 0.0 1.0
  outer loop
    vertex 120.94172827098417 7.976367184457416 -29.466435
    vertex 129.20189145544163 -4.000000000000056 -29.466435
    vertex 121.14832248036141 8.245605999999928 -29.466435
  endloop
endfacet
facet normal 0.0 0.0 1.0
  outer loop
    vertex 121.14832248036141 8.245605999999928 -29.466435
    vertex 129.20189145544163 -4.000000000000056 -29.466435
    vertex 121.27819302961744 8.55914124136665 -29.466435
  endloop
endfacet
facet normal 0.0 0.0 1.0
  outer loop
    vertex 121.27819302961744 8.55914124136665 -29.466435
    vertex 129.20189145544163 -4.000000000000056 -29.466435
    vertex 121.32248945544166 8.895605999999926 -29.466435
  endloop
endfacet
facet normal 0.0 0.0 1.0
  outer loop
    vertex 103.41067945544164 21.791211999999895 -29.466435
    vertex 111.94008145544164 10.021439024919694 -29.466435
    vertex 129.20189145544163 21.791211999999895 -29.466435
  endloop
endfacet
facet normal 0.0 0.0 1.0
  outer loop
    vertex 111.94008145544164 10.021439024919694 -29.466435
    vertex 103.41067945544164 21.791211999999895 -29.466435
    vertex 111.67084263989913 9.814844815542434 -29.466435
  endloop
endfacet
facet normal 0.0 0.0 1.0
  outer loop
    vertex 111.67084263989913 9.814844815542434 -29.466435
    vertex 103.41067945544164 21.791211999999895 -29.466435
    vertex 111.46424843052189 9.545605999999925 -29.466435
  endloop
endfacet
facet normal 0.0 0.0 1.0
  outer loop
    vertex 111.46424843052189 9.545605999999925 -29.466435
    vertex 103.41067945544164 21.791211999999895 -29.466435
    vertex 111.33437788126587 9.232070758633201 -29.466435
  endloop
endfacet
facet normal 0.0 0.0 1.0
  outer loop
    vertex 111.33437788126587 9.232070758633201 -29.466435
    vertex 103.41067945544164 21.791211999999895 -29.466435
    vertex 111.29008145544165 8.895605999999926 -29.466435
  endloop
endfacet
facet normal 0.0 0.0 1.0
  outer loop
    vertex 129.20189145544163 21.791211999999895 -29.466435
    vertex 111.94008145544164 10.021439024919694 -29.466435
    vertex 112.25361669680838 10.151309574175713 -29.466435
  endloop
endfacet
facet normal 0.0 0.0 1.0
  outer loop
    vertex 129.20189145544163 21.791211999999895 -29.466435
    vertex 112.25361669680838 10.151309574175713 -29.466435
    vertex 112.59008145544165 10.195605999999923 -29.466435
  endloop
endfacet
facet normal 0.0 0.0 1.0
  outer loop
    vertex 129.20189145544163 21.791211999999895 -29.466435
    vertex 112.59008145544165 10.195605999999923 -29.466435
    vertex 112.92654621407492 10.151309574175713 -29.466435
  endloop
endfacet
facet normal 0.0 0.0 1.0
  outer loop
    vertex 129.20189145544163 21.791211999999895 -29.466435
    vertex 112.92654621407492 10.151309574175713 -29.466435
    vertex 113.24008145544164 10.021439024919694 -29.466435
  endloop
endfacet
facet normal 0.0 0.0 1.0
  outer loop
    vertex 129.20189145544163 21.791211999999895 -29.466435
    vertex 113.24008145544164 10.021439024919694 -29.466435
    vertex 113.50932027098416 9.814844815542434 -29.466435
  endloop
endfacet
facet normal 0.0 0.0 1.0
  outer loop
    vertex 129.20189145544163 21.791211999999895 -29.466435
    vertex 113.50932027098416 9.814844815542434 -29.466435
    vertex 113.7159144803614 9.545605999999925 -29.466435
  endloop
endfacet
facet normal 0.0 0.0 1.0
  outer loop
    vertex 129.20189145544163 21.791211999999895 -29.466435
    vertex 113.7159144803614 9.545605999999925 -29.466435
    vertex 113.84578502961743 9.232070758633203 -29.466435
  endloop
endfacet
facet normal 0.0 0.0 1.0
  outer loop
    vertex 129.20189145544163 21.791211999999895 -29.466435
    vertex 113.84578502961743 9.232070758633203 -29.466435
    vertex 113.89008145544165 8.895605999999926 -29.466435
  endloop
endfacet
facet normal 0.0 0.0 1.0
  outer loop
    vertex 129.20189145544163 21.791211999999895 -29.466435
    vertex 113.89008145544165 8.895605999999926 -29.466435
    vertex 119.10325063989914 9.814844815542434 -29.466435
  endloop
endfacet
facet normal 0.0 0.0 1.0
  outer loop
    vertex 119.10325063989914 9.814844815542434 -29.466435
    vertex 113.89008145544165 8.895605999999926 -29.466435
    vertex 118.8966564305219 9.545605999999925 -29.466435
  endloop
endfacet
facet normal 0.0 0.0 1.0
  outer loop
    vertex 118.8966564305219 9.545605999999925 -29.466435
    vertex 113.89008145544165 8.895605999999926 -29.466435
    vertex 118.76678588126587 9.232070758633201 -29.466435
  endloop
endfacet
facet normal 0.0 0.0 1.0
  outer loop
    vertex 118.76678588126587 9.232070758633201 -29.466435
    vertex 113.89008145544165 8.895605999999926 -29.466435
    vertex 118.72248945544166 8.895605999999926 -29.466435
  endloop
endfacet
facet normal 0.0 0.0 1.0
  outer loop
    vertex 129.20189145544163 21.791211999999895 -29.466435
    vertex 119.10325063989914 9.814844815542434 -29.466435
    vertex 119.37248945544165 10.021439024919694 -29.466435
  endloop
endfacet
facet normal 0.0 0.0 1.0
  outer loop
    vertex 129.20189145544163 21.791211999999895 -29.466435
    vertex 119.37248945544165 10.021439024919694 -29.466435
    vertex 119.68602469680839 10.151309574175713 -29.466435
  endloop
endfacet
facet normal 0.0 0.0 1.0
  outer loop
    vertex 129.20189145544163 21.791211999999895 -29.466435
    vertex 119.68602469680839 10.151309574175713 -29.466435
    vertex 120.02248945544166 10.195605999999923 -29.466435
  endloop
endfacet
facet normal 0.0 0.0 1.0
  outer loop
    vertex 129.20189145544163 21.791211999999895 -29.466435
    vertex 120.02248945544166 10.195605999999923 -29.466435
    vertex 120.35895421407493 10.151309574175713 -29.466435
  endloop
endfacet
facet normal 0.0 0.0 1.0
  outer loop
    vertex 129.20189145544163 21.791211999999895 -29.466435
    vertex 120.35895421407493 10.151309574175713 -29.466435
    vertex 120.67248945544165 10.021439024919694 -29.466435
  endloop
endfacet
facet normal 0.0 0.0 1.0
  outer loop
    vertex 129.20189145544163 21.791211999999895 -29.466435
    vertex 120.67248945544165 10.021439024919694 -29.466435
    vertex 120.94172827098417 9.814844815542434 -29.466435
  endloop
endfacet
facet normal 0.0 0.0 1.0
  outer loop
    vertex 129.20189145544163 21.791211999999895 -29.466435
    vertex 120.94172827098417 9.814844815542434 -29.466435
    vertex 121.14832248036141 9.545605999999925 -29.466435
  endloop
endfacet
facet normal 0.0 0.0 1.0
  outer loop
    vertex 129.20189145544163 21.791211999999895 -29.466435
    vertex 121.14832248036141 9.545605999999925 -29.466435
    vertex 121.27819302961744 9.232070758633203 -29.466435
  endloop
endfacet
facet normal 0.0 0.0 1.0
  outer loop
    vertex 129.20189145544163 21.791211999999895 -29.466435
    vertex 121.27819302961744 9.232070758633203 -29.466435
    vertex 121.32248945544166 8.895605999999926 -29.466435
  endloop
endfacet
facet normal 0.0 0.0 1.0
  outer loop
    vertex 129.20189145544163 21.791211999999895 -29.466435
    vertex 121.32248945544166 8.895605999999926 -29.466435
    vertex 129.20189145544163 -4.000000000000056 -29.466435
  endloop
endfacet
facet normal 0.0 -1.0 0.0
  outer loop
    vertex 129.20189145544163 -4.000000000000056 -29.466435
    vertex 103.41067945544164 -4.000000000000056 -30.466435
    vertex 129.20189145544163 -4.000000000000056 -30.466435
  endloop
endfacet
facet normal 0.0 -1.0 0.0
  outer loop
    vertex 103.41067945544164 -4.000000000000056 -30.466435
    vertex 129.20189145544163 -4.000000000000056 -29.466435
    vertex 103.41067945544164 -4.000000000000056 -29.466435
  endloop
endfacet
facet normal 0.0 1.0 0.0
  outer loop
    vertex 103.41067945544164 21.791211999999895 -29.466435
    vertex 129.20189145544163 21.791211999999895 -30.466435
    vertex 103.41067945544164 21.791211999999895 -30.466435
  endloop
endfacet
facet normal 0.0 1.0 0.0
  outer loop
    vertex 129.20189145544163 21.791211999999895 -30.466435
    vertex 103.41067945544164 21.791211999999895 -29.466435
    vertex 129.20189145544163 21.791211999999895 -29.466435
  endloop
endfacet
facet normal -1.0 -0.0 -0.0
  outer loop
    vertex 103.41067945544164 21.791211999999895 -29.466435
    vertex 103.41067945544164 -4.000000000000056 -30.466435
    vertex 103.41067945544164 -4.000000000000056 -29.466435
  endloop
endfacet
facet normal -1.0 -0.0 -0.0
  outer loop
    vertex 103.41067945544164 -4.000000000000056 -30.466435
    vertex 103.41067945544164 21.791211999999895 -29.466435
    vertex 103.41067945544164 21.791211999999895 -30.466435
  endloop
endfacet
facet normal 1.0 0.0 0.0
  outer loop
    vertex 129.20189145544163 21.791211999999895 -30.466435
    vertex 129.20189145544163 -4.000000000000056 -29.466435
    vertex 129.20189145544163 -4.000000000000056 -30.466435
  endloop
endfacet
facet normal 1.0 0.0 0.0
  outer loop
    vertex 129.20189145544163 -4.000000000000056 -29.466435
    vertex 129.20189145544163 21.791211999999895 -30.466435
    vertex 129.20189145544163 21.791211999999895 -29.466435
  endloop
endfacet
facet normal -0.13052619222005213 -0.9914448613738105 -0.0
  outer loop
    vertex 112.59008145544165 7.595605999999928 -25.666434999999996
    vertex 112.25361669680838 7.639902425824139 -29.466435
    vertex 112.59008145544165 7.595605999999928 -29.466435
  endloop
endfacet
facet normal -0.13052619222005213 -0.9914448613738105 -0.0
  outer loop
    vertex 112.25361669680838 7.639902425824139 -29.466435
    vertex 112.59008145544165 7.595605999999928 -25.666434999999996
    vertex 112.25361669680838 7.639902425824139 -25.666434999999996
  endloop
endfacet
facet normal 0.13052619222005213 -0.9914448613738105 0.0
  outer loop
    vertex 112.92654621407492 7.639902425824139 -25.666434999999996
    vertex 112.59008145544165 7.595605999999928 -29.466435
    vertex 112.92654621407492 7.639902425824139 -29.466435
  endloop
endfacet
facet normal 0.13052619222005213 -0.9914448613738105 0.0
  outer loop
    vertex 112.59008145544165 7.595605999999928 -29.466435
    vertex 112.92654621407492 7.639902425824139 -25.666434999999996
    vertex 112.59008145544165 7.595605999999928 -25.666434999999996
  endloop
endfacet
facet normal 0.38268343236507596 -0.9238795325112926 0.0
  outer loop
    vertex 113.24008145544165 7.7697729750801585 -25.666434999999996
    vertex 112.92654621407492 7.639902425824139 -29.466435
    vertex 113.24008145544165 7.7697729750801585 -29.466435
  endloop
endfacet
facet normal 0.38268343236507596 -0.9238795325112926 0.0
  outer loop
    vertex 112.92654621407492 7.639902425824139 -29.466435
    vertex 113.24008145544165 7.7697729750801585 -25.666434999999996
    vertex 112.92654621407492 7.639902425824139 -25.666434999999996
  endloop
endfacet
facet normal 0.6087614290087373 -0.7933533402912224 0.0
  outer loop
    vertex 113.50932027098416 7.976367184457416 -25.666434999999996
    vertex 113.24008145544165 7.7697729750801585 -29.466435
    vertex 113.50932027098416 7.976367184457416 -29.466435
  endloop
endfacet
facet normal 0.6087614290087373 -0.7933533402912224 0.0
  outer loop
    vertex 113.24008145544165 7.7697729750801585 -29.466435
    vertex 113.50932027098416 7.976367184457416 -25.666434999999996
    vertex 113.24008145544165 7.7697729750801585 -25.666434999999996
  endloop
endfacet
facet normal 0.7933533402912468 -0.6087614290087056 0.0
  outer loop
    vertex 113.7159144803614 8.245605999999928 -29.466435
    vertex 113.50932027098416 7.976367184457416 -25.666434999999996
    vertex 113.50932027098416 7.976367184457416 -29.466435
  endloop
endfacet
facet normal 0.7933533402912468 -0.6087614290087056 0.0
  outer loop
    vertex 113.50932027098416 7.976367184457416 -25.666434999999996
    vertex 113.7159144803614 8.245605999999928 -29.466435
    vertex 113.7159144803614 8.245605999999928 -25.666434999999996
  endloop
endfacet
facet normal 0.9238795325112831 -0.3826834323650992 0.0
  outer loop
    vertex 113.84578502961743 8.55914124136665 -29.466435
    vertex 113.7159144803614 8.245605999999928 -25.666434999999996
    vertex 113.7159144803614 8.245605999999928 -29.466435
  endloop
endfacet
facet normal 0.9238795325112831 -0.3826834323650992 0.0
  outer loop
    vertex 113.7159144803614 8.245605999999928 -25.666434999999996
    vertex 113.84578502961743 8.55914124136665 -29.466435
    vertex 113.84578502961743 8.55914124136665 -25.666434999999996
  endloop
endfacet
facet normal 0.9914448613738085 -0.13052619222006687 0.0
  outer loop
    vertex 113.89008145544165 8.895605999999926 -29.466435
    vertex 113.84578502961743 8.55914124136665 -25.666434999999996
    vertex 113.84578502961743 8.55914124136665 -29.466435
  endloop
endfacet
facet normal 0.9914448613738085 -0.13052619222006687 0.0
  outer loop
    vertex 113.84578502961743 8.55914124136665 -25.666434999999996
    vertex 113.89008145544165 8.895605999999926 -29.466435
    vertex 113.89008145544165 8.895605999999926 -25.666434999999996
  endloop
endfacet
facet normal 0.0 0.0 1.0
  outer loop
    vertex 111.33437788126587 8.559141241366648 -25.666434999999996
    vertex 111.33437788126587 9.232070758633201 -25.666434999999996
    vertex 111.29008145544165 8.895605999999926 -25.666434999999996
  endloop
endfacet
facet normal 0.0 0.0 1.0
  outer loop
    vertex 111.33437788126587 9.232070758633201 -25.666434999999996
    vertex 111.33437788126587 8.559141241366648 -25.666434999999996
    vertex 111.46424843052189 8.245605999999928 -25.666434999999996
  endloop
endfacet
facet normal 0.0 0.0 1.0
  outer loop
    vertex 111.33437788126587 9.232070758633201 -25.666434999999996
    vertex 111.46424843052189 8.245605999999928 -25.666434999999996
    vertex 111.46424843052189 9.545605999999925 -25.666434999999996
  endloop
endfacet
facet normal 0.0 0.0 1.0
  outer loop
    vertex 111.46424843052189 9.545605999999925 -25.666434999999996
    vertex 111.46424843052189 8.245605999999928 -25.666434999999996
    vertex 111.67084263989913 7.976367184457416 -25.666434999999996
  endloop
endfacet
facet normal 0.0 0.0 1.0
  outer loop
    vertex 111.46424843052189 9.545605999999925 -25.666434999999996
    vertex 111.67084263989913 7.976367184457416 -25.666434999999996
    vertex 111.67084263989913 9.814844815542434 -25.666434999999996
  endloop
endfacet
facet normal 0.0 0.0 1.0
  outer loop
    vertex 111.67084263989913 9.814844815542434 -25.666434999999996
    vertex 111.67084263989913 7.976367184457416 -25.666434999999996
    vertex 111.94008145544166 7.7697729750801585 -25.666434999999996
  endloop
endfacet
facet normal 0.0 0.0 1.0
  outer loop
    vertex 111.67084263989913 9.814844815542434 -25.666434999999996
    vertex 111.94008145544166 7.7697729750801585 -25.666434999999996
    vertex 111.94008145544164 10.021439024919694 -25.666434999999996
  endloop
endfacet
facet normal 0.0 0.0 1.0
  outer loop
    vertex 111.94008145544164 10.021439024919694 -25.666434999999996
    vertex 111.94008145544166 7.7697729750801585 -25.666434999999996
    vertex 112.25361669680838 10.151309574175713 -25.666434999999996
  endloop
endfacet
facet normal 0.0 0.0 1.0
  outer loop
    vertex 112.25361669680838 10.151309574175713 -25.666434999999996
    vertex 111.94008145544166 7.7697729750801585 -25.666434999999996
    vertex 112.25361669680838 7.639902425824139 -25.666434999999996
  endloop
endfacet
facet normal 0.0 0.0 1.0
  outer loop
    vertex 112.25361669680838 10.151309574175713 -25.666434999999996
    vertex 112.25361669680838 7.639902425824139 -25.666434999999996
    vertex 112.59008145544165 7.595605999999928 -25.666434999999996
  endloop
endfacet
facet normal 0.0 0.0 1.0
  outer loop
    vertex 112.25361669680838 10.151309574175713 -25.666434999999996
    vertex 112.59008145544165 7.595605999999928 -25.666434999999996
    vertex 112.59008145544165 10.195605999999923 -25.666434999999996
  endloop
endfacet
facet normal 0.0 0.0 1.0
  outer loop
    vertex 112.59008145544165 10.195605999999923 -25.666434999999996
    vertex 112.59008145544165 7.595605999999928 -25.666434999999996
    vertex 112.92654621407492 7.639902425824139 -25.666434999999996
  endloop
endfacet
facet normal 0.0 0.0 1.0
  outer loop
    vertex 112.59008145544165 10.195605999999923 -25.666434999999996
    vertex 112.92654621407492 7.639902425824139 -25.666434999999996
    vertex 112.92654621407492 10.151309574175713 -25.666434999999996
  endloop
endfacet
facet normal 0.0 0.0 1.0
  outer loop
    vertex 112.92654621407492 10.151309574175713 -25.666434999999996
    vertex 112.92654621407492 7.639902425824139 -25.666434999999996
    vertex 113.24008145544165 7.7697729750801585 -25.666434999999996
  endloop
endfacet
facet normal 0.0 0.0 1.0
  outer loop
    vertex 112.92654621407492 10.151309574175713 -25.666434999999996
    vertex 113.24008145544165 7.7697729750801585 -25.666434999999996
    vertex 113.24008145544164 10.021439024919694 -25.666434999999996
  endloop
endfacet
facet normal 0.0 0.0 1.0
  outer loop
    vertex 113.24008145544164 10.021439024919694 -25.666434999999996
    vertex 113.24008145544165 7.7697729750801585 -25.666434999999996
    vertex 113.50932027098416 9.814844815542434 -25.666434999999996
  endloop
endfacet
facet normal 0.0 0.0 1.0
  outer loop
    vertex 113.50932027098416 9.814844815542434 -25.666434999999996
    vertex 113.24008145544165 7.7697729750801585 -25.666434999999996
    vertex 113.50932027098416 7.976367184457416 -25.666434999999996
  endloop
endfacet
facet normal 0.0 0.0 1.0
  outer loop
    vertex 113.50932027098416 9.814844815542434 -25.666434999999996
    vertex 113.50932027098416 7.976367184457416 -25.666434999999996
    vertex 113.7159144803614 8.245605999999928 -25.666434999999996
  endloop
endfacet
facet normal 0.0 0.0 1.0
  outer loop
    vertex 113.50932027098416 9.814844815542434 -25.666434999999996
    vertex 113.7159144803614 8.245605999999928 -25.666434999999996
    vertex 113.7159144803614 9.545605999999925 -25.666434999999996
  endloop
endfacet
facet normal 0.0 0.0 1.0
  outer loop
    vertex 113.7159144803614 9.545605999999925 -25.666434999999996
    vertex 113.7159144803614 8.245605999999928 -25.666434999999996
    vertex 113.84578502961743 8.55914124136665 -25.666434999999996
  endloop
endfacet
facet normal 0.0 0.0 1.0
  outer loop
    vertex 113.7159144803614 9.545605999999925 -25.666434999999996
    vertex 113.84578502961743 8.55914124136665 -25.666434999999996
    vertex 113.84578502961743 9.232070758633203 -25.666434999999996
  endloop
endfacet
facet normal 0.0 0.0 1.0
  outer loop
    vertex 113.84578502961743 9.232070758633203 -25.666434999999996
    vertex 113.84578502961743 8.55914124136665 -25.666434999999996
    vertex 113.89008145544165 8.895605999999926 -25.666434999999996
  endloop
endfacet
facet normal 0.9914448613738085 0.1305261922200663 0.0
  outer loop
    vertex 121.27819302961744 9.232070758633203 -29.466435
    vertex 121.32248945544166 8.895605999999926 -25.666434999999996
    vertex 121.32248945544166 8.895605999999926 -29.466435
  endloop
endfacet
facet normal 0.9914448613738085 0.1305261922200663 0.0
  outer loop
    vertex 121.32248945544166 8.895605999999926 -25.666434999999996
    vertex 121.27819302961744 9.232070758633203 -29.466435
    vertex 121.27819302961744 9.232070758633203 -25.666434999999996
  endloop
endfacet
facet normal 0.6087614290087078 0.7933533402912452 0.0
  outer loop
    vertex 113.24008145544164 10.021439024919694 -25.666434999999996
    vertex 113.50932027098416 9.814844815542434 -29.466435
    vertex 113.24008145544164 10.021439024919694 -29.466435
  endloop
endfacet
facet normal 0.6087614290087078 0.7933533402912452 0.0
  outer loop
    vertex 113.50932027098416 9.814844815542434 -29.466435
    vertex 113.24008145544164 10.021439024919694 -25.666434999999996
    vertex 113.50932027098416 9.814844815542434 -25.666434999999996
  endloop
endfacet
facet normal 0.13052619222005213 0.9914448613738105 0.0
  outer loop
    vertex 112.59008145544165 10.195605999999923 -25.666434999999996
    vertex 112.92654621407492 10.151309574175713 -29.466435
    vertex 112.59008145544165 10.195605999999923 -29.466435
  endloop
endfacet
facet normal 0.13052619222005213 0.9914448613738105 0.0
  outer loop
    vertex 112.92654621407492 10.151309574175713 -29.466435
    vertex 112.59008145544165 10.195605999999923 -25.666434999999996
    vertex 112.92654621407492 10.151309574175713 -25.666434999999996
  endloop
endfacet
facet normal -0.3826834323650994 -0.9238795325112829 -0.0
  outer loop
    vertex 112.25361669680838 7.639902425824139 -25.666434999999996
    vertex 111.94008145544166 7.7697729750801585 -29.466435
    vertex 112.25361669680838 7.639902425824139 -29.466435
  endloop
endfacet
facet normal -0.3826834323650994 -0.9238795325112829 -0.0
  outer loop
    vertex 111.94008145544166 7.7697729750801585 -29.466435
    vertex 112.25361669680838 7.639902425824139 -25.666434999999996
    vertex 111.94008145544166 7.7697729750801585 -25.666434999999996
  endloop
endfacet
facet normal -0.6087614290087051 -0.793353340291247 -0.0
  outer loop
    vertex 111.94008145544166 7.7697729750801585 -25.666434999999996
    vertex 111.67084263989913 7.976367184457416 -29.466435
    vertex 111.94008145544166 7.7697729750801585 -29.466435
  endloop
endfacet
facet normal -0.6087614290087051 -0.793353340291247 -0.0
  outer loop
    vertex 111.67084263989913 7.976367184457416 -29.466435
    vertex 111.94008145544166 7.7697729750801585 -25.666434999999996
    vertex 111.67084263989913 7.976367184457416 -25.666434999999996
  endloop
endfacet
facet normal -0.6087614290087373 0.7933533402912224 0.0
  outer loop
    vertex 111.67084263989913 9.814844815542434 -25.666434999999996
    vertex 111.94008145544164 10.021439024919694 -29.466435
    vertex 111.67084263989913 9.814844815542434 -29.466435
  endloop
endfacet
facet normal -0.6087614290087373 0.7933533402912224 0.0
  outer loop
    vertex 111.94008145544164 10.021439024919694 -29.466435
    vertex 111.67084263989913 9.814844815542434 -25.666434999999996
    vertex 111.94008145544164 10.021439024919694 -25.666434999999996
  endloop
endfacet
facet normal 0.9238795325112824 0.38268343236510066 0.0
  outer loop
    vertex 113.7159144803614 9.545605999999925 -29.466435
    vertex 113.84578502961743 9.232070758633203 -25.666434999999996
    vertex 113.84578502961743 9.232070758633203 -29.466435
  endloop
endfacet
facet normal 0.9238795325112824 0.38268343236510066 0.0
  outer loop
    vertex 113.84578502961743 9.232070758633203 -25.666434999999996
    vertex 113.7159144803614 9.545605999999925 -29.466435
    vertex 113.7159144803614 9.545605999999925 -25.666434999999996
  endloop
endfacet
facet normal -0.9238795325112824 -0.38268343236510066 -0.0
  outer loop
    vertex 111.33437788126587 8.559141241366648 -25.666434999999996
    vertex 111.46424843052189 8.245605999999928 -29.466435
    vertex 111.46424843052189 8.245605999999928 -25.666434999999996
  endloop
endfacet
facet normal -0.9238795325112824 -0.38268343236510066 -0.0
  outer loop
    vertex 111.46424843052189 8.245605999999928 -29.466435
    vertex 111.33437788126587 8.559141241366648 -25.666434999999996
    vertex 111.33437788126587 8.559141241366648 -29.466435
  endloop
endfacet
facet normal 0.0 0.0 1.0
  outer loop
    vertex 118.76678588126587 8.559141241366648 -25.666434999999996
    vertex 118.76678588126587 9.232070758633201 -25.666434999999996
    vertex 118.72248945544166 8.895605999999926 -25.666434999999996
  endloop
endfacet
facet normal 0.0 0.0 1.0
  outer loop
    vertex 118.76678588126587 9.232070758633201 -25.666434999999996
    vertex 118.76678588126587 8.559141241366648 -25.666434999999996
    vertex 118.8966564305219 8.245605999999928 -25.666434999999996
  endloop
endfacet
facet normal 0.0 0.0 1.0
  outer loop
    vertex 118.76678588126587 9.232070758633201 -25.666434999999996
    vertex 118.8966564305219 8.245605999999928 -25.666434999999996
    vertex 118.8966564305219 9.545605999999925 -25.666434999999996
  endloop
endfacet
facet normal 0.0 0.0 1.0
  outer loop
    vertex 118.8966564305219 9.545605999999925 -25.666434999999996
    vertex 118.8966564305219 8.245605999999928 -25.666434999999996
    vertex 119.10325063989914 7.976367184457416 -25.666434999999996
  endloop
endfacet
facet normal 0.0 0.0 1.0
  outer loop
    vertex 118.8966564305219 9.545605999999925 -25.666434999999996
    vertex 119.10325063989914 7.976367184457416 -25.666434999999996
    vertex 119.10325063989914 9.814844815542434 -25.666434999999996
  endloop
endfacet
facet normal 0.0 0.0 1.0
  outer loop
    vertex 119.10325063989914 9.814844815542434 -25.666434999999996
    vertex 119.10325063989914 7.976367184457416 -25.666434999999996
    vertex 119.37248945544167 7.7697729750801585 -25.666434999999996
  endloop
endfacet
facet normal 0.0 0.0 1.0
  outer loop
    vertex 119.10325063989914 9.814844815542434 -25.666434999999996
    vertex 119.37248945544167 7.7697729750801585 -25.666434999999996
    vertex 119.37248945544165 10.021439024919694 -25.666434999999996
  endloop
endfacet
facet normal 0.0 0.0 1.0
  outer loop
    vertex 119.37248945544165 10.021439024919694 -25.666434999999996
    vertex 119.37248945544167 7.7697729750801585 -25.666434999999996
    vertex 119.68602469680839 10.151309574175713 -25.666434999999996
  endloop
endfacet
facet normal 0.0 0.0 1.0
  outer loop
    vertex 119.68602469680839 10.151309574175713 -25.666434999999996
    vertex 119.37248945544167 7.7697729750801585 -25.666434999999996
    vertex 119.68602469680839 7.639902425824139 -25.666434999999996
  endloop
endfacet
facet normal 0.0 0.0 1.0
  outer loop
    vertex 119.68602469680839 10.151309574175713 -25.666434999999996
    vertex 119.68602469680839 7.639902425824139 -25.666434999999996
    vertex 120.02248945544166 7.595605999999928 -25.666434999999996
  endloop
endfacet
facet normal 0.0 0.0 1.0
  outer loop
    vertex 119.68602469680839 10.151309574175713 -25.666434999999996
    vertex 120.02248945544166 7.595605999999928 -25.666434999999996
    vertex 120.02248945544166 10.195605999999923 -25.666434999999996
  endloop
endfacet
facet normal 0.0 0.0 1.0
  outer loop
    vertex 120.02248945544166 10.195605999999923 -25.666434999999996
    vertex 120.02248945544166 7.595605999999928 -25.666434999999996
    vertex 120.35895421407493 7.639902425824139 -25.666434999999996
  endloop
endfacet
facet normal 0.0 0.0 1.0
  outer loop
    vertex 120.02248945544166 10.195605999999923 -25.666434999999996
    vertex 120.35895421407493 7.639902425824139 -25.666434999999996
    vertex 120.35895421407493 10.151309574175713 -25.666434999999996
  endloop
endfacet
facet normal 0.0 0.0 1.0
  outer loop
    vertex 120.35895421407493 10.151309574175713 -25.666434999999996
    vertex 120.35895421407493 7.639902425824139 -25.666434999999996
    vertex 120.67248945544166 7.7697729750801585 -25.666434999999996
  endloop
endfacet
facet normal 0.0 0.0 1.0
  outer loop
    vertex 120.35895421407493 10.151309574175713 -25.666434999999996
    vertex 120.67248945544166 7.7697729750801585 -25.666434999999996
    vertex 120.67248945544165 10.021439024919694 -25.666434999999996
  endloop
endfacet
facet normal 0.0 0.0 1.0
  outer loop
    vertex 120.67248945544165 10.021439024919694 -25.666434999999996
    vertex 120.67248945544166 7.7697729750801585 -25.666434999999996
    vertex 120.94172827098417 9.814844815542434 -25.666434999999996
  endloop
endfacet
facet normal 0.0 0.0 1.0
  outer loop
    vertex 120.94172827098417 9.814844815542434 -25.666434999999996
    vertex 120.67248945544166 7.7697729750801585 -25.666434999999996
    vertex 120.94172827098417 7.976367184457416 -25.666434999999996
  endloop
endfacet
facet normal 0.0 0.0 1.0
  outer loop
    vertex 120.94172827098417 9.814844815542434 -25.666434999999996
    vertex 120.94172827098417 7.976367184457416 -25.666434999999996
    vertex 121.14832248036141 8.245605999999928 -25.666434999999996
  endloop
endfacet
facet normal 0.0 0.0 1.0
  outer loop
    vertex 120.94172827098417 9.814844815542434 -25.666434999999996
    vertex 121.14832248036141 8.245605999999928 -25.666434999999996
    vertex 121.14832248036141 9.545605999999925 -25.666434999999996
  endloop
endfacet
facet normal 0.0 0.0 1.0
  outer loop
    vertex 121.14832248036141 9.545605999999925 -25.666434999999996
    vertex 121.14832248036141 8.245605999999928 -25.666434999999996
    vertex 121.27819302961744 8.55914124136665 -25.666434999999996
  endloop
endfacet
facet normal 0.0 0.0 1.0
  outer loop
    vertex 121.14832248036141 9.545605999999925 -25.666434999999996
    vertex 121.27819302961744 8.55914124136665 -25.666434999999996
    vertex 121.27819302961744 9.232070758633203 -25.666434999999996
  endloop
endfacet
facet normal 0.0 0.0 1.0
  outer loop
    vertex 121.27819302961744 9.232070758633203 -25.666434999999996
    vertex 121.27819302961744 8.55914124136665 -25.666434999999996
    vertex 121.32248945544166 8.895605999999926 -25.666434999999996
  endloop
endfacet
facet normal -0.7933533402912468 0.6087614290087056 0.0
  outer loop
    vertex 111.67084263989913 9.814844815542434 -25.666434999999996
    vertex 111.46424843052189 9.545605999999925 -29.466435
    vertex 111.46424843052189 9.545605999999925 -25.666434999999996
  endloop
endfacet
facet normal -0.7933533402912468 0.6087614290087056 0.0
  outer loop
    vertex 111.46424843052189 9.545605999999925 -29.466435
    vertex 111.67084263989913 9.814844815542434 -25.666434999999996
    vertex 111.67084263989913 9.814844815542434 -29.466435
  endloop
endfacet
facet normal 0.9914448613738085 0.1305261922200663 0.0
  outer loop
    vertex 113.84578502961743 9.232070758633203 -29.466435
    vertex 113.89008145544165 8.895605999999926 -25.666434999999996
    vertex 113.89008145544165 8.895605999999926 -29.466435
  endloop
endfacet
facet normal 0.9914448613738085 0.1305261922200663 0.0
  outer loop
    vertex 113.89008145544165 8.895605999999926 -25.666434999999996
    vertex 113.84578502961743 9.232070758633203 -29.466435
    vertex 113.84578502961743 9.232070758633203 -25.666434999999996
  endloop
endfacet
facet normal 0.3826834323650959 0.9238795325112844 0.0
  outer loop
    vertex 112.92654621407492 10.151309574175713 -25.666434999999996
    vertex 113.24008145544164 10.021439024919694 -29.466435
    vertex 112.92654621407492 10.151309574175713 -29.466435
  endloop
endfacet
facet normal 0.3826834323650959 0.9238795325112844 0.0
  outer loop
    vertex 113.24008145544164 10.021439024919694 -29.466435
    vertex 112.92654621407492 10.151309574175713 -25.666434999999996
    vertex 113.24008145544164 10.021439024919694 -25.666434999999996
  endloop
endfacet
facet normal -0.38268343236507596 0.9238795325112926 0.0
  outer loop
    vertex 111.94008145544164 10.021439024919694 -25.666434999999996
    vertex 112.25361669680838 10.151309574175713 -29.466435
    vertex 111.94008145544164 10.021439024919694 -29.466435
  endloop
endfacet
facet normal -0.38268343236507596 0.9238795325112926 0.0
  outer loop
    vertex 112.25361669680838 10.151309574175713 -29.466435
    vertex 111.94008145544164 10.021439024919694 -25.666434999999996
    vertex 112.25361669680838 10.151309574175713 -25.666434999999996
  endloop
endfacet
facet normal -0.13052619222005213 0.9914448613738105 0.0
  outer loop
    vertex 112.25361669680838 10.151309574175713 -25.666434999999996
    vertex 112.59008145544165 10.195605999999923 -29.466435
    vertex 112.25361669680838 10.151309574175713 -29.466435
  endloop
endfacet
facet normal -0.13052619222005213 0.9914448613738105 0.0
  outer loop
    vertex 112.59008145544165 10.195605999999923 -29.466435
    vertex 112.25361669680838 10.151309574175713 -25.666434999999996
    vertex 112.59008145544165 10.195605999999923 -25.666434999999996
  endloop
endfacet
facet normal 0.9914448613738085 -0.13052619222006687 0.0
  outer loop
    vertex 121.32248945544166 8.895605999999926 -29.466435
    vertex 121.27819302961744 8.55914124136665 -25.666434999999996
    vertex 121.27819302961744 8.55914124136665 -29.466435
  endloop
endfacet
facet normal 0.9914448613738085 -0.13052619222006687 0.0
  outer loop
    vertex 121.27819302961744 8.55914124136665 -25.666434999999996
    vertex 121.32248945544166 8.895605999999926 -29.466435
    vertex 121.32248945544166 8.895605999999926 -25.666434999999996
  endloop
endfacet
facet normal -0.9914448613738085 -0.1305261922200663 -0.0
  outer loop
    vertex 111.29008145544165 8.895605999999926 -25.666434999999996
    vertex 111.33437788126587 8.559141241366648 -29.466435
    vertex 111.33437788126587 8.559141241366648 -25.666434999999996
  endloop
endfacet
facet normal -0.9914448613738085 -0.1305261922200663 -0.0
  outer loop
    vertex 111.33437788126587 8.559141241366648 -29.466435
    vertex 111.29008145544165 8.895605999999926 -25.666434999999996
    vertex 111.29008145544165 8.895605999999926 -29.466435
  endloop
endfacet
facet normal -0.9914448613738085 0.13052619222006687 0.0
  outer loop
    vertex 111.33437788126587 9.232070758633201 -25.666434999999996
    vertex 111.29008145544165 8.895605999999926 -29.466435
    vertex 111.29008145544165 8.895605999999926 -25.666434999999996
  endloop
endfacet
facet normal -0.9914448613738085 0.13052619222006687 0.0
  outer loop
    vertex 111.29008145544165 8.895605999999926 -29.466435
    vertex 111.33437788126587 9.232070758633201 -25.666434999999996
    vertex 111.33437788126587 9.232070758633201 -29.466435
  endloop
endfacet
facet normal 0.7933533402912468 0.6087614290087056 0.0
  outer loop
    vertex 113.50932027098416 9.814844815542434 -29.466435
    vertex 113.7159144803614 9.545605999999925 -25.666434999999996
    vertex 113.7159144803614 9.545605999999925 -29.466435
  endloop
endfacet
facet normal 0.7933533402912468 0.6087614290087056 0.0
  outer loop
    vertex 113.7159144803614 9.545605999999925 -25.666434999999996
    vertex 113.50932027098416 9.814844815542434 -29.466435
    vertex 113.50932027098416 9.814844815542434 -25.666434999999996
  endloop
endfacet
facet normal -0.9238795325112831 0.3826834323650992 0.0
  outer loop
    vertex 111.46424843052189 9.545605999999925 -25.666434999999996
    vertex 111.33437788126587 9.232070758633201 -29.466435
    vertex 111.33437788126587 9.232070758633201 -25.666434999999996
  endloop
endfacet
facet normal -0.9238795325112831 0.3826834323650992 0.0
  outer loop
    vertex 111.33437788126587 9.232070758633201 -29.466435
    vertex 111.46424843052189 9.545605999999925 -25.666434999999996
    vertex 111.46424843052189 9.545605999999925 -29.466435
  endloop
endfacet
facet normal -0.7933533402912468 -0.6087614290087056 -0.0
  outer loop
    vertex 111.46424843052189 8.245605999999928 -25.666434999999996
    vertex 111.67084263989913 7.976367184457416 -29.466435
    vertex 111.67084263989913 7.976367184457416 -25.666434999999996
  endloop
endfacet
facet normal -0.7933533402912468 -0.6087614290087056 -0.0
  outer loop
    vertex 111.67084263989913 7.976367184457416 -29.466435
    vertex 111.46424843052189 8.245605999999928 -25.666434999999996
    vertex 111.46424843052189 8.245605999999928 -29.466435
  endloop
endfacet
facet normal 0.13052619222005213 0.9914448613738105 0.0
  outer loop
    vertex 120.02248945544166 10.195605999999923 -25.666434999999996
    vertex 120.35895421407493 10.151309574175713 -29.466435
    vertex 120.02248945544166 10.195605999999923 -29.466435
  endloop
endfacet
facet normal 0.13052619222005213 0.9914448613738105 0.0
  outer loop
    vertex 120.35895421407493 10.151309574175713 -29.466435
    vertex 120.02248945544166 10.195605999999923 -25.666434999999996
    vertex 120.35895421407493 10.151309574175713 -25.666434999999996
  endloop
endfacet
facet normal -0.9238795325112824 -0.38268343236510066 -0.0
  outer loop
    vertex 118.76678588126587 8.559141241366648 -25.666434999999996
    vertex 118.8966564305219 8.245605999999928 -29.466435
    vertex 118.8966564305219 8.245605999999928 -25.666434999999996
  endloop
endfacet
facet normal -0.9238795325112824 -0.38268343236510066 -0.0
  outer loop
    vertex 118.8966564305219 8.245605999999928 -29.466435
    vertex 118.76678588126587 8.559141241366648 -25.666434999999996
    vertex 118.76678588126587 8.559141241366648 -29.466435
  endloop
endfacet
facet normal -0.6087614290087373 0.7933533402912224 0.0
  outer loop
    vertex 119.10325063989914 9.814844815542434 -25.666434999999996
    vertex 119.37248945544165 10.021439024919694 -29.466435
    vertex 119.10325063989914 9.814844815542434 -29.466435
  endloop
endfacet
facet normal -0.6087614290087373 0.7933533402912224 0.0
  outer loop
    vertex 119.37248945544165 10.021439024919694 -29.466435
    vertex 119.10325063989914 9.814844815542434 -25.666434999999996
    vertex 119.37248945544165 10.021439024919694 -25.666434999999996
  endloop
endfacet
facet normal 0.6087614290087373 -0.7933533402912224 0.0
  outer loop
    vertex 120.94172827098417 7.976367184457416 -25.666434999999996
    vertex 120.67248945544166 7.7697729750801585 -29.466435
    vertex 120.94172827098417 7.976367184457416 -29.466435
  endloop
endfacet
facet normal 0.6087614290087373 -0.7933533402912224 0.0
  outer loop
    vertex 120.67248945544166 7.7697729750801585 -29.466435
    vertex 120.94172827098417 7.976367184457416 -25.666434999999996
    vertex 120.67248945544166 7.7697729750801585 -25.666434999999996
  endloop
endfacet
facet normal -0.9914448613738085 0.13052619222006687 0.0
  outer loop
    vertex 118.76678588126587 9.232070758633201 -25.666434999999996
    vertex 118.72248945544166 8.895605999999926 -29.466435
    vertex 118.72248945544166 8.895605999999926 -25.666434999999996
  endloop
endfacet
facet normal -0.9914448613738085 0.13052619222006687 0.0
  outer loop
    vertex 118.72248945544166 8.895605999999926 -29.466435
    vertex 118.76678588126587 9.232070758633201 -25.666434999999996
    vertex 118.76678588126587 9.232070758633201 -29.466435
  endloop
endfacet
facet normal -0.13052619222005213 0.9914448613738105 0.0
  outer loop
    vertex 119.68602469680839 10.151309574175713 -25.666434999999996
    vertex 120.02248945544166 10.195605999999923 -29.466435
    vertex 119.68602469680839 10.151309574175713 -29.466435
  endloop
endfacet
facet normal -0.13052619222005213 0.9914448613738105 0.0
  outer loop
    vertex 120.02248945544166 10.195605999999923 -29.466435
    vertex 119.68602469680839 10.151309574175713 -25.666434999999996
    vertex 120.02248945544166 10.195605999999923 -25.666434999999996
  endloop
endfacet
facet normal -0.9238795325112831 0.3826834323650992 0.0
  outer loop
    vertex 118.8966564305219 9.545605999999925 -25.666434999999996
    vertex 118.76678588126587 9.232070758633201 -29.466435
    vertex 118.76678588126587 9.232070758633201 -25.666434999999996
  endloop
endfacet
facet normal -0.9238795325112831 0.3826834323650992 0.0
  outer loop
    vertex 118.76678588126587 9.232070758633201 -29.466435
    vertex 118.8966564305219 9.545605999999925 -25.666434999999996
    vertex 118.8966564305219 9.545605999999925 -29.466435
  endloop
endfacet
facet normal 0.13052619222005213 -0.9914448613738105 0.0
  outer loop
    vertex 120.35895421407493 7.639902425824139 -25.666434999999996
    vertex 120.02248945544166 7.595605999999928 -29.466435
    vertex 120.35895421407493 7.639902425824139 -29.466435
  endloop
endfacet
facet normal 0.13052619222005213 -0.9914448613738105 0.0
  outer loop
    vertex 120.02248945544166 7.595605999999928 -29.466435
    vertex 120.35895421407493 7.639902425824139 -25.666434999999996
    vertex 120.02248945544166 7.595605999999928 -25.666434999999996
  endloop
endfacet
facet normal 0.38268343236507596 -0.9238795325112926 0.0
  outer loop
    vertex 120.67248945544166 7.7697729750801585 -25.666434999999996
    vertex 120.35895421407493 7.639902425824139 -29.466435
    vertex 120.67248945544166 7.7697729750801585 -29.466435
  endloop
endfacet
facet normal 0.38268343236507596 -0.9238795325112926 0.0
  outer loop
    vertex 120.35895421407493 7.639902425824139 -29.466435
    vertex 120.67248945544166 7.7697729750801585 -25.666434999999996
    vertex 120.35895421407493 7.639902425824139 -25.666434999999996
  endloop
endfacet
facet normal 0.7933533402912468 -0.6087614290087056 0.0
  outer loop
    vertex 121.14832248036141 8.245605999999928 -29.466435
    vertex 120.94172827098417 7.976367184457416 -25.666434999999996
    vertex 120.94172827098417 7.976367184457416 -29.466435
  endloop
endfacet
facet normal 0.7933533402912468 -0.6087614290087056 0.0
  outer loop
    vertex 120.94172827098417 7.976367184457416 -25.666434999999996
    vertex 121.14832248036141 8.245605999999928 -29.466435
    vertex 121.14832248036141 8.245605999999928 -25.666434999999996
  endloop
endfacet
facet normal -0.9914448613738085 -0.1305261922200663 -0.0
  outer loop
    vertex 118.72248945544166 8.895605999999926 -25.666434999999996
    vertex 118.76678588126587 8.559141241366648 -29.466435
    vertex 118.76678588126587 8.559141241366648 -25.666434999999996
  endloop
endfacet
facet normal -0.9914448613738085 -0.1305261922200663 -0.0
  outer loop
    vertex 118.76678588126587 8.559141241366648 -29.466435
    vertex 118.72248945544166 8.895605999999926 -25.666434999999996
    vertex 118.72248945544166 8.895605999999926 -29.466435
  endloop
endfacet
facet normal 0.9238795325112824 0.38268343236510066 0.0
  outer loop
    vertex 121.14832248036141 9.545605999999925 -29.466435
    vertex 121.27819302961744 9.232070758633203 -25.666434999999996
    vertex 121.27819302961744 9.232070758633203 -29.466435
  endloop
endfacet
facet normal 0.9238795325112824 0.38268343236510066 0.0
  outer loop
    vertex 121.27819302961744 9.232070758633203 -25.666434999999996
    vertex 121.14832248036141 9.545605999999925 -29.466435
    vertex 121.14832248036141 9.545605999999925 -25.666434999999996
  endloop
endfacet
facet normal -0.6087614290087051 -0.793353340291247 -0.0
  outer loop
    vertex 119.37248945544167 7.7697729750801585 -25.666434999999996
    vertex 119.10325063989914 7.976367184457416 -29.466435
    vertex 119.37248945544167 7.7697729750801585 -29.466435
  endloop
endfacet
facet normal -0.6087614290087051 -0.793353340291247 -0.0
  outer loop
    vertex 119.10325063989914 7.976367184457416 -29.466435
    vertex 119.37248945544167 7.7697729750801585 -25.666434999999996
    vertex 119.10325063989914 7.976367184457416 -25.666434999999996
  endloop
endfacet
facet normal -0.7933533402912468 0.6087614290087056 0.0
  outer loop
    vertex 119.10325063989914 9.814844815542434 -25.666434999999996
    vertex 118.8966564305219 9.545605999999925 -29.466435
    vertex 118.8966564305219 9.545605999999925 -25.666434999999996
  endloop
endfacet
facet normal -0.7933533402912468 0.6087614290087056 0.0
  outer loop
    vertex 118.8966564305219 9.545605999999925 -29.466435
    vertex 119.10325063989914 9.814844815542434 -25.666434999999996
    vertex 119.10325063989914 9.814844815542434 -29.466435
  endloop
endfacet
facet normal -0.3826834323650994 -0.9238795325112829 -0.0
  outer loop
    vertex 119.68602469680839 7.639902425824139 -25.666434999999996
    vertex 119.37248945544167 7.7697729750801585 -29.466435
    vertex 119.68602469680839 7.639902425824139 -29.466435
  endloop
endfacet
facet normal -0.3826834323650994 -0.9238795325112829 -0.0
  outer loop
    vertex 119.37248945544167 7.7697729750801585 -29.466435
    vertex 119.68602469680839 7.639902425824139 -25.666434999999996
    vertex 119.37248945544167 7.7697729750801585 -25.666434999999996
  endloop
endfacet
facet normal 0.9238795325112831 -0.3826834323650992 0.0
  outer loop
    vertex 121.27819302961744 8.55914124136665 -29.466435
    vertex 121.14832248036141 8.245605999999928 -25.666434999999996
    vertex 121.14832248036141 8.245605999999928 -29.466435
  endloop
endfacet
facet normal 0.9238795325112831 -0.3826834323650992 0.0
  outer loop
    vertex 121.14832248036141 8.245605999999928 -25.666434999999996
    vertex 121.27819302961744 8.55914124136665 -29.466435
    vertex 121.27819302961744 8.55914124136665 -25.666434999999996
  endloop
endfacet
facet normal -0.7933533402912468 -0.6087614290087056 -0.0
  outer loop
    vertex 118.8966564305219 8.245605999999928 -25.666434999999996
    vertex 119.10325063989914 7.976367184457416 -29.466435
    vertex 119.10325063989914 7.976367184457416 -25.666434999999996
  endloop
endfacet
facet normal -0.7933533402912468 -0.6087614290087056 -0.0
  outer loop
    vertex 119.10325063989914 7.976367184457416 -29.466435
    vertex 118.8966564305219 8.245605999999928 -25.666434999999996
    vertex 118.8966564305219 8.245605999999928 -29.466435
  endloop
endfacet
facet normal 0.6087614290087078 0.7933533402912452 0.0
  outer loop
    vertex 120.67248945544165 10.021439024919694 -25.666434999999996
    vertex 120.94172827098417 9.814844815542434 -29.466435
    vertex 120.67248945544165 10.021439024919694 -29.466435
  endloop
endfacet
facet normal 0.6087614290087078 0.7933533402912452 0.0
  outer loop
    vertex 120.94172827098417 9.814844815542434 -29.466435
    vertex 120.67248945544165 10.021439024919694 -25.666434999999996
    vertex 120.94172827098417 9.814844815542434 -25.666434999999996
  endloop
endfacet
facet normal 0.3826834323650959 0.9238795325112844 0.0
  outer loop
    vertex 120.35895421407493 10.151309574175713 -25.666434999999996
    vertex 120.67248945544165 10.021439024919694 -29.466435
    vertex 120.35895421407493 10.151309574175713 -29.466435
  endloop
endfacet
facet normal 0.3826834323650959 0.9238795325112844 0.0
  outer loop
    vertex 120.67248945544165 10.021439024919694 -29.466435
    vertex 120.35895421407493 10.151309574175713 -25.666434999999996
    vertex 120.67248945544165 10.021439024919694 -25.666434999999996
  endloop
endfacet
facet normal -0.38268343236507596 0.9238795325112926 0.0
  outer loop
    vertex 119.37248945544165 10.021439024919694 -25.666434999999996
    vertex 119.68602469680839 10.151309574175713 -29.466435
    vertex 119.37248945544165 10.021439024919694 -29.466435
  endloop
endfacet
facet normal -0.38268343236507596 0.9238795325112926 0.0
  outer loop
    vertex 119.68602469680839 10.151309574175713 -29.466435
    vertex 119.37248945544165 10.021439024919694 -25.666434999999996
    vertex 119.68602469680839 10.151309574175713 -25.666434999999996
  endloop
endfacet
facet normal -0.13052619222005213 -0.9914448613738105 -0.0
  outer loop
    vertex 120.02248945544166 7.595605999999928 -25.666434999999996
    vertex 119.68602469680839 7.639902425824139 -29.466435
    vertex 120.02248945544166 7.595605999999928 -29.466435
  endloop
endfacet
facet normal -0.13052619222005213 -0.9914448613738105 -0.0
  outer loop
    vertex 119.68602469680839 7.639902425824139 -29.466435
    vertex 120.02248945544166 7.595605999999928 -25.666434999999996
    vertex 119.68602469680839 7.639902425824139 -25.666434999999996
  endloop
endfacet
facet normal 0.7933533402912468 0.6087614290087056 0.0
  outer loop
    vertex 120.94172827098417 9.814844815542434 -29.466435
    vertex 121.14832248036141 9.545605999999925 -25.666434999999996
    vertex 121.14832248036141 9.545605999999925 -29.466435
  endloop
endfacet
facet normal 0.7933533402912468 0.6087614290087056 0.0
  outer loop
    vertex 121.14832248036141 9.545605999999925 -25.666434999999996
    vertex 120.94172827098417 9.814844815542434 -29.466435
    vertex 120.94172827098417 9.814844815542434 -25.666434999999996
  endloop
endfacet
endsolid 3d krystof enderman1
